<svg width="22" height="22" viewBox="0 0 22 22" fill="none" xmlns="http://www.w3.org/2000/svg">
<rect width="22" height="22" rx="5" fill="#FF0066"/>
<path d="M15.0837 6.83416C15.2774 6.64976 15.5351 6.54781 15.8025 6.54983C16.07 6.55186 16.3261 6.65769 16.517 6.845C16.7079 7.03232 16.8186 7.28646 16.8256 7.5538C16.8327 7.82114 16.7356 8.08077 16.5549 8.27791L11.0687 15.1392C10.9743 15.2408 10.8605 15.3223 10.7339 15.3789C10.6073 15.4355 10.4706 15.466 10.332 15.4686C10.1934 15.4711 10.0557 15.4457 9.92708 15.3939C9.7985 15.342 9.6817 15.2647 9.58366 15.1667L5.94541 11.5284C5.84409 11.434 5.76283 11.3201 5.70646 11.1936C5.6501 11.0672 5.61979 10.9306 5.61735 10.7921C5.6149 10.6537 5.64038 10.5161 5.69224 10.3877C5.74411 10.2593 5.82131 10.1427 5.91923 10.0447C6.01716 9.94681 6.13381 9.86961 6.26221 9.81774C6.39062 9.76587 6.52816 9.7404 6.66663 9.74285C6.8051 9.74529 6.94165 9.7756 7.06815 9.83196C7.19465 9.88832 7.3085 9.96959 7.40291 10.0709L10.2822 12.9488L15.0575 6.86441C15.0661 6.85382 15.0753 6.84372 15.085 6.83416H15.0837Z" fill="white"/>
</svg>
